<svg width="16" height="16" viewBox="0 0 16 16" fill="none" xmlns="http://www.w3.org/2000/svg">
<path fill-rule="evenodd" clip-rule="evenodd" d="M15.1673 12.0003V4.66699C15.1673 3.56242 14.2719 2.66699 13.1673 2.66699L2.83398 2.667C1.72941 2.667 0.833984 3.56243 0.833984 4.667V12.0003C0.833984 13.1049 1.72941 14.0003 2.83399 14.0003L13.1673 14.0003C14.2719 14.0003 15.1673 13.1049 15.1673 12.0003ZM13.834 6.1733V12.0003C13.834 12.3685 13.5355 12.667 13.1673 12.667L2.83399 12.667C2.4658 12.667 2.16732 12.3685 2.16732 12.0003L2.16732 6.17321L6.8761 9.37518C7.55482 9.83671 8.44662 9.83671 9.12534 9.37518L13.834 6.1733ZM13.8264 4.56607C13.7778 4.24577 13.5012 4.00032 13.1673 4.00033L2.83398 4.00034C2.50013 4.00034 2.2236 4.24573 2.17492 4.56599L7.62584 8.27261C7.85208 8.42646 8.14935 8.42646 8.37559 8.27261L13.8264 4.56607Z" fill="white"/>
</svg>
