<svg width="16" height="16" viewBox="0 0 16 16" fill="none" xmlns="http://www.w3.org/2000/svg">
<path fill-rule="evenodd" clip-rule="evenodd" d="M5.66732 1.94759C5.11503 1.94759 4.66732 2.39531 4.66732 2.94759V13.0518C4.66732 13.604 5.11503 14.0518 5.66732 14.0518H10.334C10.8863 14.0518 11.334 13.604 11.334 13.0518V2.94759C11.334 2.39531 10.8863 1.94759 10.334 1.94759H10.2784L10.116 2.33723C10.0125 2.58564 9.76977 2.74744 9.50065 2.74744H6.50065C6.23153 2.74744 5.98881 2.58564 5.88528 2.33723L5.72291 1.94759H5.66732ZM3.33398 2.94759C3.33398 1.65893 4.37865 0.614258 5.66732 0.614258H10.334C11.6226 0.614258 12.6673 1.65893 12.6673 2.94759V13.0518C12.6673 14.3404 11.6226 15.3851 10.334 15.3851H5.66732C4.37865 15.3851 3.33398 14.3404 3.33398 13.0518V2.94759Z" fill="white"/>
</svg>
