<svg width="17" height="17" viewBox="0 0 17 17" fill="none" xmlns="http://www.w3.org/2000/svg">
<path d="M16.6625 16.6667L16.6667 16.666V10.5535C16.6667 7.56319 16.0229 5.25972 12.5271 5.25972C10.8465 5.25972 9.71875 6.18194 9.25833 7.05625H9.20972V5.53889H5.89513V16.666H9.34652V11.1563C9.34652 9.70556 9.62152 8.30278 11.4181 8.30278C13.1882 8.30278 13.2146 9.95834 13.2146 11.2493V16.6667H16.6625Z" fill="#787A80"/>
<path d="M0.274996 5.53958H3.73055V16.6667H0.274996V5.53958Z" fill="#787A80"/>
<path d="M2.00139 0C0.896528 0 0 0.896528 0 2.00139C0 3.10625 0.896528 4.02153 2.00139 4.02153C3.10625 4.02153 4.00278 3.10625 4.00278 2.00139C4.00208 0.896528 3.10556 0 2.00139 0Z" fill="#787A80"/>
</svg>
