<svg width="299" height="251" viewBox="0 0 299 251" fill="none" xmlns="http://www.w3.org/2000/svg">
<g opacity="0.3">
<path d="M298.894 26.7761C298.894 33.6352 296.322 40.4942 291.111 45.7044L95.1017 241.714C84.6813 252.134 67.7316 252.134 57.3112 241.714C52.2329 236.636 49.4629 229.909 49.4629 222.786C49.4629 215.663 52.2329 208.936 57.3112 203.857L253.321 7.84791C258.399 2.76961 265.06 -0.000384041 272.249 -0.000384126C279.372 -0.000384211 286.099 2.7696 291.177 7.84791C296.322 13.1241 298.894 19.9171 298.894 26.7761ZM50.7819 222.786C50.7819 229.579 53.42 235.976 58.2345 240.725C68.1273 250.618 84.2856 250.618 94.1784 240.725L290.188 44.7151C300.081 34.8223 300.081 18.664 290.188 8.77124C285.373 3.95672 278.976 1.31866 272.249 1.31866C265.456 1.31866 259.059 3.95672 254.31 8.77124L58.2345 204.847C53.42 209.595 50.7819 215.993 50.7819 222.786Z" fill="#00F0B5"/>
<path d="M249.431 27.6902C249.431 34.5492 246.859 41.4082 241.648 46.6185L45.6388 242.628C35.2184 253.048 18.2687 253.048 7.8483 242.628C2.76999 237.55 2.75254e-06 230.823 2.6676e-06 223.7C2.58266e-06 216.577 2.76999 209.85 7.8483 204.772L203.858 8.76198C208.936 3.68367 215.597 0.913678 222.786 0.913678C229.909 0.913678 236.636 3.68367 241.714 8.76198C246.859 14.0381 249.431 20.8312 249.431 27.6902ZM1.31904 223.7C1.31904 230.493 3.95713 236.89 8.77163 241.639C18.6644 251.532 34.8227 251.532 44.7155 241.639L240.725 45.6292C250.618 35.7364 250.618 19.5781 240.725 9.6853C235.911 4.87079 229.513 2.23272 222.786 2.23272C215.993 2.23272 209.596 4.87079 204.847 9.6853L8.77163 205.761C3.95713 210.509 1.31904 216.907 1.31904 223.7Z" fill="#00F0B5"/>
</g>
</svg>
