<svg width="159" height="389" viewBox="0 0 159 389" fill="none" xmlns="http://www.w3.org/2000/svg">
<g opacity="0.3">
<path d="M15.6037 285.508C15.6037 276.716 18.9005 267.925 25.5786 261.247L276.808 10.0171C290.164 -3.33902 311.889 -3.33902 325.245 10.0171C331.754 16.5261 335.305 25.1483 335.305 34.2778C335.305 43.4073 331.754 52.0296 325.245 58.5386L74.0155 309.768C67.5065 316.277 58.9688 319.828 49.7548 319.828C40.6253 319.828 32.003 316.277 25.494 309.768C18.9005 303.006 15.6037 294.299 15.6037 285.508ZM333.614 34.2778C333.614 25.571 330.233 17.3714 324.062 11.2851C311.382 -1.39478 290.672 -1.39478 277.992 11.2851L26.762 262.515C14.0822 275.195 14.0822 295.905 26.762 308.585C32.9329 314.756 41.1325 318.137 49.7548 318.137C58.4616 318.137 66.6612 314.756 72.7475 308.585L324.062 57.2706C330.233 51.1843 333.614 42.9846 333.614 34.2778Z" fill="#00F0B5"/>
<path d="M0.000217028 354.508C0.000216923 345.716 3.297 336.925 9.97504 330.247L261.205 79.0171C274.561 65.661 296.286 65.661 309.642 79.0171C316.151 85.5261 319.701 94.1483 319.701 103.278C319.701 112.407 316.151 121.03 309.642 127.539L58.412 378.768C51.903 385.277 43.3653 388.828 34.1513 388.828C25.0218 388.828 16.3995 385.277 9.89051 378.768C3.297 372.006 0.000217133 363.299 0.000217028 354.508ZM318.011 103.278C318.011 94.571 314.629 86.3714 308.458 80.2851C295.779 67.6052 275.068 67.6052 262.388 80.2851L11.1585 331.515C-1.52136 344.195 -1.52136 364.905 11.1585 377.585C17.3293 383.756 25.529 387.137 34.1513 387.137C42.8581 387.137 51.0577 383.756 57.144 377.585L308.458 126.271C314.629 120.184 318.011 111.985 318.011 103.278Z" fill="#00F0B5"/>
</g>
</svg>
