<svg width="464" height="402" viewBox="0 0 464 402" fill="none" xmlns="http://www.w3.org/2000/svg">
<g opacity="0.4">
<path d="M82.6195 -283.921C44.4063 -289.637 13.6727 -273.318 -12.9691 -248.096C-39.6278 -222.859 -62.1096 -188.787 -83.838 -159.101C-106.062 -128.738 -133.332 -96.3103 -150.774 -62.0292C-168.202 -27.7734 -175.759 8.23034 -158.635 45.7269C-142.012 82.1261 -108.415 95.8211 -70.0043 105.133C-60.405 107.46 -50.515 109.511 -40.521 111.576C-30.5299 113.64 -20.4349 115.718 -10.439 118.097C9.55192 122.854 29.1757 128.821 46.8494 138.313C66.2239 148.719 84.0169 163.8 101.04 180.271C109.553 188.507 117.88 197.096 126.116 205.627C134.355 214.16 142.502 222.633 150.669 230.646C183.37 262.734 216.177 287.253 255.715 278.667C297.917 269.501 331.864 237.679 354.299 196.771C376.733 155.867 387.619 105.94 383.742 60.6887C380.397 21.6628 354.778 -6.13781 323.123 -31.9518C307.287 -44.8657 290.009 -57.2318 273.252 -70.2798C256.514 -83.3128 240.337 -96.9961 226.804 -112.481C213.828 -127.33 202.925 -144.805 192.722 -162.815C182.507 -180.847 173.015 -199.37 162.81 -216.426C142.405 -250.528 119.329 -278.429 82.6195 -283.921Z" stroke="#00F0B5"/>
<path d="M87.4376 -216.458C57.3963 -220.952 33.2296 -208.126 12.2661 -188.28C-8.71439 -168.418 -26.4074 -141.604 -43.5199 -118.225C-61.0237 -94.3102 -82.4843 -68.7905 -96.2117 -41.8095C-109.926 -14.8542 -115.864 13.4574 -102.4 42.9397C-89.3339 71.5506 -62.9258 82.3228 -32.6892 89.6529C-25.1333 91.4847 -17.3483 93.0995 -9.47934 94.7254C-1.61334 96.3506 6.33645 97.9871 14.2085 99.8604C29.9516 103.607 45.4129 108.307 59.3402 115.787C74.6076 123.987 88.6256 135.869 102.031 148.839C108.735 155.326 115.291 162.09 121.776 168.806C128.263 175.525 134.678 182.195 141.106 188.503C166.855 213.769 192.647 233.03 223.715 226.283C256.902 219.075 283.608 194.048 301.263 161.856C318.917 129.668 327.483 90.3793 324.431 54.772C321.802 24.0907 301.662 2.22645 276.743 -18.0947C264.275 -28.2623 250.679 -37.993 237.479 -48.2707C224.299 -58.5334 211.556 -69.3122 200.895 -81.5121C190.671 -93.2115 182.082 -106.977 174.048 -121.159C166.001 -135.362 158.533 -149.939 150.498 -163.368C134.434 -190.215 116.288 -212.142 87.4376 -216.458Z" stroke="#00F0B5"/>
<path d="M90.9169 -167.716C66.7801 -171.327 47.3583 -161.025 30.4975 -145.063C13.6199 -129.085 -0.612195 -107.514 -14.3895 -88.6912C-28.483 -69.4361 -45.7466 -48.9091 -56.7903 -27.2029C-67.8212 -5.52204 -72.5895 17.2328 -61.7698 40.925C-51.2737 63.9083 -30.0607 72.5687 -5.73 78.4672C0.349288 79.941 6.61367 81.2406 12.9471 82.5492C19.2777 83.8572 25.6778 85.1745 32.0153 86.6827C44.6893 89.6987 57.1437 93.4842 68.3643 99.5108C80.6641 106.117 91.9537 115.687 102.745 126.128C108.142 131.35 113.42 136.795 118.64 142.201C123.861 147.609 129.023 152.977 134.196 158.052C154.922 178.39 175.644 193.852 200.592 188.434C227.266 182.641 248.74 162.522 262.942 136.628C277.141 110.737 284.033 79.1341 281.578 50.495C279.466 25.8428 263.284 8.26766 243.232 -8.08487C233.197 -16.2681 222.26 -24.0942 211.632 -32.3703C201.022 -40.6316 190.76 -49.3118 182.173 -59.1381C173.937 -68.5619 167.021 -79.6483 160.554 -91.0638C154.074 -102.501 148.068 -114.225 141.601 -125.033C128.673 -146.639 114.089 -164.25 90.9169 -167.716Z" stroke="#00F0B5"/>
</g>
</svg>
