<svg width="760" height="1587" viewBox="0 0 760 1587" fill="none" xmlns="http://www.w3.org/2000/svg">
<g opacity="0.4">
<path d="M900.463 292.688C843.496 267.909 788.988 280.478 737.183 308.525C685.358 336.583 636.337 380.076 590.355 417.044C543.329 454.852 487.566 493.81 446.279 539.718C405.012 585.605 378.291 638.35 389.279 703.693C399.95 767.152 446.446 802.387 502.119 832.775C516.034 840.371 530.514 847.659 545.144 855.009C559.771 862.357 574.549 869.767 589.047 877.602C618.043 893.271 645.95 910.651 669.369 932.674C695.042 956.816 716.337 987.548 735.874 1020.13C745.643 1036.43 754.977 1053.19 764.2 1069.83C773.423 1086.48 782.536 1102.99 791.866 1118.81C829.215 1182.11 869.949 1233.88 934.969 1237C1004.29 1240.32 1070.19 1205.05 1121.99 1150.93C1173.78 1096.81 1211.41 1023.91 1224.2 952.109C1235.24 890.114 1207.02 836.303 1168.67 783.142C1149.5 756.553 1127.84 730.193 1107.3 703.03C1086.77 675.887 1067.4 647.982 1052.87 618.391C1038.94 590.018 1029.31 558.434 1020.98 526.293C1012.64 494.128 1005.61 461.453 996.881 430.782C979.417 369.451 955.211 316.503 900.463 292.688Z" stroke="#00F0B5"/>
<path d="M879.91 399.24C835.1 379.749 792.22 389.63 751.448 411.704C710.655 433.789 672.07 468.024 635.859 497.136C598.826 526.909 554.934 557.574 522.435 593.71C489.955 629.826 468.938 671.324 477.582 722.728C485.975 772.64 522.542 800.361 566.37 824.284C577.325 830.263 588.723 836 600.242 841.787C611.759 847.573 623.396 853.408 634.813 859.577C657.645 871.916 679.627 885.605 698.076 902.954C718.301 921.973 735.073 946.179 750.457 971.838C758.149 984.668 765.499 997.869 772.76 1010.97C780.023 1024.08 787.196 1037.08 794.542 1049.53C823.95 1099.37 855.995 1140.08 907.124 1142.53C961.665 1145.15 1013.52 1117.39 1054.29 1074.8C1095.05 1032.2 1124.67 974.821 1134.74 918.313C1143.43 869.546 1121.23 827.21 1091.04 785.358C1075.94 764.424 1058.89 743.678 1042.72 722.285C1026.56 700.913 1011.3 678.935 999.855 655.627C988.882 633.279 981.296 608.403 974.735 583.095C968.168 557.763 962.64 532.046 955.764 507.897C942.015 459.612 922.967 417.969 879.91 399.24Z" stroke="#00F0B5"/>
<path d="M865.059 476.224C829.032 460.553 794.553 468.493 761.752 486.252C728.93 504.022 697.885 531.567 668.736 555.002C638.922 578.971 603.606 603.642 577.457 632.719C551.326 661.775 534.43 695.146 541.38 736.479C548.127 776.603 577.521 798.894 612.792 818.146C621.607 822.957 630.78 827.574 640.051 832.232C649.319 836.888 658.686 841.586 667.877 846.552C686.257 856.484 703.957 867.507 718.815 881.479C735.102 896.795 748.608 916.287 760.991 936.941C767.184 947.269 773.1 957.895 778.944 968.44C784.789 978.987 790.561 989.453 796.473 999.471C820.143 1039.59 845.912 1072.3 887.004 1074.27C930.864 1076.38 972.577 1054.06 1005.37 1019.79C1038.17 985.521 1062 939.354 1070.1 893.892C1077.08 854.684 1059.24 820.639 1034.95 786.958C1022.79 770.109 1009.08 753.419 996.054 736.196C983.046 718.992 970.762 701.297 961.547 682.529C952.711 664.533 946.603 644.504 941.322 624.134C936.035 603.738 931.588 583.049 926.054 563.614C914.989 524.754 899.668 491.279 865.059 476.224Z" stroke="#00F0B5"/>
</g>
</svg>
