<svg width="18" height="14" viewBox="0 0 18 14" fill="none" xmlns="http://www.w3.org/2000/svg">
<path d="M17.5 1.61041C16.8559 1.88369 16.1648 2.06902 15.4387 2.15177C16.1801 1.72664 16.7476 1.05232 17.0166 0.251294C16.3211 0.64499 15.5535 0.930865 14.7355 1.08584C14.0805 0.416751 13.1488 0 12.1153 0C10.1327 0 8.52523 1.53922 8.52523 3.43654C8.52523 3.70563 8.55694 3.96845 8.61819 4.21978C5.63501 4.0763 2.98973 2.70777 1.21928 0.628234C0.909801 1.13504 0.733743 1.72557 0.733743 2.35594C0.733743 3.54858 1.368 4.60091 2.33033 5.21657C1.742 5.19773 1.18866 5.04276 0.704233 4.78517V4.8281C0.704233 6.49297 1.94213 7.88245 3.58353 8.19869C3.2828 8.27618 2.96568 8.31911 2.63761 8.31911C2.4058 8.31911 2.18161 8.29712 1.9618 8.25523C2.41889 9.62168 3.74429 10.6154 5.31463 10.6426C4.08657 11.564 2.5381 12.1117 0.856243 12.1117C0.566463 12.1117 0.28103 12.0949 0 12.0646C1.58893 13.0415 3.4753 13.6111 5.50273 13.6111C12.1066 13.6111 15.7165 8.37357 15.7165 3.83131L15.7044 3.3863C16.4097 2.90461 17.0199 2.2994 17.5 1.61041Z" fill="#787A80"/>
</svg>
